<svg width="730" height="656" viewBox="0 0 730 656" fill="none" xmlns="http://www.w3.org/2000/svg">
<circle cx="365" cy="328" r="328" fill="url(#paint0_linear_25_51)"/>
<mask id="mask0_25_51" style="mask-type:alpha" maskUnits="userSpaceOnUse" x="37" y="0" width="656" height="656">
<circle cx="365" cy="328" r="328" fill="url(#paint1_linear_25_51)"/>
</mask>
<g mask="url(#mask0_25_51)">
<rect x="27.9361" y="386.349" width="691.123" height="13.5959" fill="#353434"/>
<rect x="-9.4525" y="423.737" width="695.655" height="20.3938" fill="#353434"/>
<rect x="53.1754" y="516.451" width="585.907" height="39.36" fill="#353434"/>
<rect x="39.6959" y="471.127" width="629.94" height="27.4327" fill="#353434"/>
<rect x="72.1226" y="588.021" width="585.755" height="40.7875" fill="#353434"/>
</g>
<rect x="432" y="161" width="104" height="193" fill="#353434"/>
<rect x="331" y="130" width="104" height="193" fill="#353434"/>
<rect x="249" y="238" width="117" height="189" fill="#353434"/>
<rect x="149" y="176" width="104" height="193" fill="#353434"/>
<rect x="496" y="190" width="104" height="187" fill="#353434"/>
<path d="M102.5 572H627.5L730 656H0L102.5 572Z" fill="#1A111E"/>
<path d="M243.147 607H325.853V620H227L243.147 607Z" fill="#E5E5E5"/>
<path d="M84.1473 607H166.853L149.5 620H108.75H68L84.1473 607Z" fill="#E5E5E5"/>
<path d="M402.147 607H484.853L501 620H402.147L402.147 607Z" fill="#E5E5E5"/>
<path d="M561.147 607H643.853L660 620H576L561.147 607Z" fill="#E5E5E5"/>
<defs>
<linearGradient id="paint0_linear_25_51" x1="365" y1="0" x2="365" y2="656" gradientUnits="userSpaceOnUse">
<stop stop-color="#D2D531"/>
<stop offset="1" stop-color="#D27723"/>
</linearGradient>
<linearGradient id="paint1_linear_25_51" x1="365" y1="0" x2="365" y2="656" gradientUnits="userSpaceOnUse">
<stop stop-color="#D2D531"/>
<stop offset="1" stop-color="#D27723"/>
</linearGradient>
</defs>
</svg>
