<svg width="118" height="261" viewBox="0 0 118 261" fill="none" xmlns="http://www.w3.org/2000/svg">
<rect width="118" height="261" fill="#12111C"/>
<path d="M87 65H103V81H87V65Z" fill="#61D9D2"/>
<path d="M87 65H103V81H87V65Z" fill="#61D9D2"/>
<path d="M51 65H67V81H51V65Z" fill="#61D9D2"/>
<path d="M51 65H67V81H51V65Z" fill="#61D9D2"/>
<path d="M15 65H31V81H15V65Z" fill="#61D9D2"/>
<path d="M15 65H31V81H15V65Z" fill="#61D9D2"/>
<path d="M87 123H103V139H87V123Z" fill="#61D9D2"/>
<path d="M87 123H103V139H87V123Z" fill="#61D9D2"/>
<path d="M51 123H67V139H51V123Z" fill="#61D9D2"/>
<path d="M51 123H67V139H51V123Z" fill="#61D9D2"/>
<path d="M15 123H31V139H15V123Z" fill="#61D9D2"/>
<path d="M15 123H31V139H15V123Z" fill="#61D9D2"/>
<path d="M87 94H103V110H87V94Z" fill="#61D9D2"/>
<path d="M87 94H103V110H87V94Z" fill="#61D9D2"/>
<path d="M51 94H67V110H51V94Z" fill="#61D9D2"/>
<path d="M51 94H67V110H51V94Z" fill="#61D9D2"/>
<path d="M15 94H31V110H15V94Z" fill="#61D9D2"/>
<path d="M15 94H31V110H15V94Z" fill="#61D9D2"/>
<path d="M87 152H103V168H87V152Z" fill="#61D9D2"/>
<path d="M87 152H103V168H87V152Z" fill="#61D9D2"/>
<path d="M51 152H67V168H51V152Z" fill="#61D9D2"/>
<path d="M51 152H67V168H51V152Z" fill="#61D9D2"/>
<path d="M15 152H31V168H15V152Z" fill="#61D9D2"/>
<path d="M15 152H31V168H15V152Z" fill="#61D9D2"/>
<path d="M87 181H103V197H87V181Z" fill="#61D9D2"/>
<path d="M87 181H103V197H87V181Z" fill="#61D9D2"/>
<path d="M51 181H67V197H51V181Z" fill="#61D9D2"/>
<path d="M51 181H67V197H51V181Z" fill="#61D9D2"/>
<path d="M31 217H88V261H31V217Z" fill="#F6F6F7"/>
<rect x="65" y="228" width="17" height="33" fill="#61D9D2"/>
<rect x="37" y="228" width="17" height="33" fill="#61D9D2"/>
<path d="M15 181H31V197H15V181Z" fill="#61D9D2"/>
<path d="M15 181H31V197H15V181Z" fill="#61D9D2"/>
</svg>
