<svg width="160" height="293" viewBox="0 0 160 293" fill="none" xmlns="http://www.w3.org/2000/svg">
<rect width="160" height="293" fill="#201B1B"/>
<path d="M108 140H152V154H130H108V140Z" fill="#D27723"/>
<path d="M108 140H152V154H108V140Z" fill="#D27723"/>
<path d="M108 166H152V180H130H108V166Z" fill="#D27723"/>
<path d="M108 166H152V180H108V166Z" fill="#D27723"/>
<path d="M108 192H152V206H130H108V192Z" fill="#D27723"/>
<path d="M108 192H152V206H108V192Z" fill="#D27723"/>
<path d="M108 218H152V232H130H108V218Z" fill="#D27723"/>
<path d="M108 218H152V232H108V218Z" fill="#D27723"/>
<path d="M108 88H152V102H130H108V88Z" fill="#D27723"/>
<path d="M108 88H152V102H108V88Z" fill="#D27723"/>
<path d="M108 62H152V76H130H108V62Z" fill="#D27723"/>
<path d="M108 62H152V76H108V62Z" fill="#D27723"/>
<path d="M108 114H152V128H130H108V114Z" fill="#D27723"/>
<path d="M108 114H152V128H108V114Z" fill="#D27723"/>
<path d="M8 140H52V154H30H8V140Z" fill="#D27723"/>
<path d="M8 140H52V154H8V140Z" fill="#D27723"/>
<path d="M8 166H52V180H30H8V166Z" fill="#D27723"/>
<path d="M8 166H52V180H8V166Z" fill="#D27723"/>
<path d="M8 192H52V206H30H8V192Z" fill="#D27723"/>
<path d="M8 192H52V206H8V192Z" fill="#D27723"/>
<path d="M8 218H52V232H30H8V218Z" fill="#D27723"/>
<path d="M8 218H52V232H8V218Z" fill="#D27723"/>
<path d="M8 88H52V102H30H8V88Z" fill="#D27723"/>
<path d="M8 88H52V102H8V88Z" fill="#D27723"/>
<path d="M37 249H125V293H37V249Z" fill="#F6F6F7"/>
<rect x="85" y="257" width="28" height="36" fill="#D27723"/>
<rect x="49" y="257" width="28" height="36" fill="#D27723"/>
<rect x="60" y="62" width="40" height="170" fill="#D27723"/>
<path d="M8 62H52V76H30H8V62Z" fill="#D27723"/>
<path d="M8 62H52V76H8V62Z" fill="#D27723"/>
<path d="M8 114H52V128H30H8V114Z" fill="#D27723"/>
<path d="M8 114H52V128H8V114Z" fill="#D27723"/>
</svg>
